<svg display="none" width="0" height="0" version="1.1" xmlns="http://www.w3.org/2000/svg" xmlns:xlink="http://www.w3.org/1999/xlink">
	<defs>
		<symbol id="icon-broken-heart" viewBox="0 0 1024 1024">
			<title>broken-heart</title>
			<path class="path1" d="M483.328 618.496l28.672-138.24-55.296-102.4 20.48-104.448c-11.264-15.36-115.712-141.312-274.432-94.208-95.232 28.672-126.976 80.896-143.36 144.384-26.624 99.328 10.24 224.256 101.376 310.272 148.48 142.336 360.448 232.448 360.448 232.448s1.024-1.024 4.096-2.048l9.216-84.992-51.2-160.768z"></path>
			<path class="path2" d="M961.536 301.056c-19.456-62.464-53.248-113.664-149.504-138.24-171.008-43.008-271.36 107.52-271.36 107.52s0-1.024-1.024-2.048l-30.72 101.376 45.056 107.52-41.984 134.144 34.816 164.864-17.408 83.968c28.672-14.336 214.016-109.568 345.088-246.784 87.040-88.064 117.76-214.016 87.040-312.32z"></path>
		</symbol>
		<symbol id="icon-menu-part" viewBox="0 0 8192 1024">
			<title>menu-part</title>
			<path class="path1" d="M7680 1024h-7168c-256 0-512-204.8-512-512s256-512 512-512h7168c307.2 0 512 204.8 512 512s-256 512-512 512z"></path>
		</symbol>
		<symbol id="icon-box" viewBox="0 0 1024 1024">
			<title>box</title>
			<path class="path1" d="M858.453 831.147l-310.613 148.48c-8.533 5.12-17.067 0-17.067-10.24v-476.16c0-10.24 6.827-15.36 15.36-10.24l128 73.387c8.533 5.12 22.187 5.12 30.72-1.707l151.893-98.987c8.533-5.12 15.36-1.707 15.36 8.533v341.333c1.707 8.533-5.12 20.48-13.653 25.6v0zM482.987 979.627l-307.2-148.48c-8.533-5.12-17.067-17.067-17.067-27.307v-290.133c0-10.24 6.827-15.36 15.36-10.24l160.427 88.747c8.533 5.12 22.187 3.413 30.72-3.413l121.173-102.4c8.533-6.827 13.653-3.413 13.653 6.827v476.16c0 10.24-6.827 15.36-17.067 10.24v0zM977.92 157.013l-90.453 114.347c-6.827 8.533-18.773 11.947-29.013 8.533l-315.733-117.76c-10.24-3.413-17.067 1.707-17.067 11.947l-3.413 256c0 10.24-1.707 18.773-3.413 18.773s-3.413-8.533-3.413-18.773l-6.827-256c0-10.24-8.533-15.36-17.067-11.947l-315.733 117.76c-10.24 3.413-22.187 0-30.72-6.827l-98.987-102.4c-6.827-6.827-3.413-15.36 5.12-17.067l322.56-90.453c10.24-3.413 23.893 0 32.427 5.12l90.453 66.56c8.533 6.827 17.067 10.24 18.773 11.947 1.707 0 8.533-6.827 15.36-13.653l66.56-80.213c6.827-8.533 20.48-11.947 29.013-10.24l346.453 93.867c8.533 3.413 11.947 11.947 5.12 20.48v0zM469.333 464.213l-116.053 95.573c-6.827 6.827-20.48 6.827-29.013 3.413l-254.293-138.24c-8.533-5.12-10.24-13.653-1.707-20.48l92.16-87.040c6.827-6.827 20.48-8.533 29.013-5.12l279.893 131.413c6.827 5.12 6.827 13.653 0 20.48v0zM965.973 360.107l-250.88 162.133c-8.533 5.12-22.187 6.827-30.72 1.707l-124.587-63.147c-8.533-5.12-8.533-11.947 0-15.36l286.72-138.24c8.533-3.413 23.893-5.12 32.427 0l83.627 35.84c11.947 3.413 11.947 11.947 3.413 17.067v0z"></path>
		</symbol>
		<symbol id="icon-credit-card" viewBox="0 0 1024 1024">
			<title>credit-card</title>
			<path class="path1" d="M923.307 921.6h-679.253c-47.787 0-87.040-37.547-93.867-83.627-1.707-1.707-1.707-5.12-3.413-6.827l-133.12-372.053c-17.067-46.080 6.827-97.28 52.907-114.347l638.293-237.227c10.24-3.413 20.48-5.12 30.72-5.12 35.84 0 69.973 23.893 81.92 58.027l61.44 172.373h44.373c51.2 0 93.867 42.667 93.867 95.573v395.947c0 54.613-42.667 97.28-93.867 97.28v0zM954.027 430.080c0-17.067-13.653-30.72-30.72-30.72h-679.253c-17.067 0-30.72 13.653-30.72 30.72v39.253h740.693v-39.253zM954.027 597.333h-740.693v228.693c0 17.067 13.653 30.72 30.72 30.72h679.253c17.067 0 30.72-13.653 30.72-30.72v-228.693zM271.36 800.427v-151.893h148.48v150.187l-148.48 1.707z"></path>
		</symbol>
		<symbol id="icon-france" viewBox="0 0 1024 1024">
			<title>france</title>
			<path class="path1" d="M262.827 279.893l-23.893-129.707 51.2 8.533 8.533 35.84 122.88 5.12-22.187-18.773 1.707-30.72 107.52-46.080v-76.8l75.093-27.307 11.947 46.080 27.307-10.24 13.653 30.72h22.187l8.533 18.773 27.307-3.413v39.253l35.84 6.827 27.307-25.6 15.36 3.413-5.12 44.373 37.547 23.893 73.387 13.653 17.067 20.48 117.76 20.48-40.96 170.667-40.96 20.48-71.68 158.72h22.187l8.533-22.187 34.133-15.36 25.6 58.027-23.893 6.827 35.84 46.080-40.96 40.96 35.84 35.84-3.413 64.853h61.44l-92.16 122.88-167.253-13.653-92.16 8.533-35.84 40.96v58.027l-85.333 13.653-64.853-40.96-78.507-1.707-97.28-32.427-88.747-47.787 64.853-235.52 52.907 52.907-51.2-100.693 18.773-68.267-51.2-8.533-44.373-98.987-71.68-37.547-15.36-30.72-71.68-5.12-35.84-30.72 40.96-8.533-3.413-29.013-37.547-3.413 6.827-22.187 117.76-25.6 39.253 32.427z"></path>
		</symbol>
		<symbol id="icon-heart" viewBox="0 0 1024 1024">
			<title>heart</title>
			<path class="path1" d="M112.64 599.040c102.4 139.947 221.867 206.507 399.36 322.56 175.787-116.053 296.96-182.613 399.36-322.56 145.067-197.973 58.027-498.347-180.907-496.64-150.187 0-218.453 128-218.453 128s-69.973-126.293-218.453-128c-238.933-1.707-325.973 298.667-180.907 496.64v0zM110.933 416.427c-20.48-121.173 63.147-237.227 184.32-256 17.067-3.413 34.133 8.533 35.84 25.6 3.413 17.067-8.533 34.133-25.6 37.547-87.040 13.653-145.067 97.28-131.413 184.32 3.413 17.067-8.533 34.133-25.6 37.547-17.067 0-34.133-11.947-37.547-29.013v0z"></path>
		</symbol>
		<symbol id="icon-search" viewBox="0 0 1024 1024">
			<title>search</title>
			<path class="path1" d="M996.693 866.987c34.133 34.133 34.133 95.573 0 129.707s-95.573 34.133-129.707 0l-259.413-259.413c-61.44 34.133-129.707 61.44-211.627 61.44-218.453 0-395.947-177.493-395.947-395.947s177.493-395.947 395.947-395.947 395.947 177.493 395.947 395.947c0 75.093-20.48 150.187-61.44 211.627l266.24 252.587zM682.667 395.947c0-157.013-129.707-286.72-286.72-286.72s-286.72 129.707-286.72 286.72 129.707 286.72 286.72 286.72c163.84 0 286.72-129.707 286.72-286.72v0z"></path>
		</symbol>
		<symbol id="icon-close" viewBox="0 1080 50 50">
			<title>close</title>
			<path d="M26.5,1105l4.2-4.2c0.4-0.4,0.4-1.1,0-1.5c-0.4-0.4-1.1-0.4-1.5,0l-4.2,4.2l-4.2-4.2c-0.4-0.4-1.1-0.4-1.5,0 c-0.4,0.4-0.4,1.1,0,1.5l4.2,4.2l-4.2,4.2c-0.4,0.4-0.4,1.1,0,1.5c0.4,0.4,1.1,0.4,1.5,0l4.2-4.2l4.2,4.2c0.4,0.4,1.1,0.4,1.5,0 c0.4-0.4,0.4-1.1,0-1.5L26.5,1105L26.5,1105z"/>
		</symbol>
		<symbol id="icon-logo" viewBox="0 0 1026 1024">
			<title>logo</title>
			<path class="path1" d="M532.48 712.704c106.496 0 172.032-65.536 192.512-151.552h-385.024c20.48 86.016 98.304 151.552 192.512 151.552z"></path>
			<path class="path2" d="M512 0c-282.624 0-512 229.376-512 512s229.376 512 512 512c282.624 0 512-229.376 512-512s-229.376-512-512-512zM794.624 425.984l-86.016-20.48 65.536-65.536 20.48 86.016zM524.288 811.008c-163.84 0-299.008-135.168-299.008-299.008s135.168-299.008 299.008-299.008c86.016 0 163.84 36.864 217.088 94.208l-73.728 69.632c-36.864-36.864-86.016-61.44-143.36-61.44-90.112 0-167.936 61.44-192.512 147.456h487.424c4.096 16.384 4.096 32.768 4.096 53.248 0 163.84-131.072 294.912-299.008 294.912z"></path>
		</symbol>
		<symbol id="icon-cart" viewBox="0 1080 50 50">
			<title>cart</title>
			<path d="M34.3,1101.6H31c-0.7-2.8-3.2-7.3-6-7.3c-2.8,0-5.4,4.5-6.1,7.3h-3.2c-0.4,0-0.7,0.3-0.7,0.7l1.3,12.6 c0,0.4,0.3,0.7,0.7,0.7H33c0.4,0,0.7-0.3,0.7-0.7l1.3-12.6C35,1101.9,34.7,1101.6,34.3,1101.6z M19.9,1105.2c-0.5,0-1-0.4-1-1 c0-0.5,0.4-1,1-1s1,0.4,1,1C20.9,1104.7,20.5,1105.2,19.9,1105.2z M21,1101.6c0.7-3,2.5-6.3,4-6.3c1.5,0,3.2,3.3,4,6.3H21z M30.2,1105.2c-0.5,0-1-0.4-1-1c0-0.5,0.4-1,1-1c0.5,0,1,0.4,1,1C31.1,1104.7,30.7,1105.2,30.2,1105.2z"/>
		</symbol>
		<symbol id="icon-totop" viewBox="0 1080 50 50">
			<title>totop</title>
			<path d="M20.3,1102.2l4.1-3.5c0.2-0.1,0.4-0.2,0.6-0.2h0c0,0,0,0,0,0c0.2,0,0.4,0.1,0.6,0.2l4.1,3.5c0.3,0.2,0.4,0.6,0.2,0.9 c-0.3,0.4-0.9,0.5-1.3,0.1l-2.7-2.3c0,0-0.1,0-0.1,0v9.8c0,0.3-0.2,0.7-0.6,0.7c-0.5,0.1-1-0.2-1-0.7v-9.8c0,0,0,0-0.1,0l-2.7,2.3 c-0.4,0.3-1,0.3-1.3-0.1C19.9,1102.8,20,1102.5,20.3,1102.2z"/>
		</symbol>
		<symbol id="icon-previous" viewBox="0 1080 50 50">
			<title>previous</title>
			<path d="M22.4,1109.4l-3.3-3.8c-0.1-0.2-0.2-0.4-0.2-0.6l0,0l0,0c0-0.2,0.1-0.4,0.2-0.6l3.3-3.8c0.2-0.3,0.6-0.4,0.8-0.2 c0.4,0.3,0.5,0.8,0.1,1.2l-2.1,2.5v0.1h9.1c0.3,0,0.7,0.2,0.7,0.6c0.1,0.5-0.2,0.9-0.7,0.9h-9.1c0,0,0,0,0,0.1l2.1,2.5 c0.3,0.4,0.3,0.9-0.1,1.2C23,1109.7,22.7,1109.6,22.4,1109.4z"/>
		</symbol>
		<symbol id="icon-facebook" viewBox="0 0 50 50">
			<title>facebook</title>
			<path d="M36.1,1.6h-6.9c0,0-10.9-1.1-10.9,10c0,2.4,0,4.7,0,4.7h-4.5V25h4.5v23.4h10.2V25h6l1.3-8.7h-7.3v-3.6c0,0-0.7-3.1,3.1-3.1
	h4.5L36.1,1.6L36.1,1.6z"/>
		</symbol>
		<symbol id="icon-mail" viewBox="0 0 50 50">
			<title>mail</title>
			<path d="M25.3,34.6C32.8,26.2,40.5,18.2,48,9.5c-14.9,0-29.8,0-44.8,0C10.4,17.8,17.5,26.2,25.3,34.6L25.3,34.6L25.3,34.6z
	 M16.6,28.4c-3.7,4-7.5,8.1-11.2,12.1c13.1,0,26.1,0,38.9,0c-3.4-3.7-6.8-8.1-10.3-12.1c-0.3,0.3-0.6,0.6-0.6,0.6
	c-2.5,2.8-5.6,6.2-8.1,8.7L16.6,28.4L16.6,28.4z M1.7,40.5c0,0,8.7-9.3,13.1-14C10.4,21.9,1.7,11.6,1.7,11.6V40.5L1.7,40.5z
	 M48.3,12.3c0,0-8.4,9.6-12.7,14.3c4,4.7,12.7,14,12.7,14V12.3L48.3,12.3z"/>
		</symbol>
		<symbol id="icon-phone" viewBox="0 0 1024 1024">
			<title>phone</title>
			<path class="path1" d="M591.872 655.36h-159.744c-12.288 0-22.528-10.24-22.528-22.528v-241.664c0-12.288 10.24-22.528 22.528-22.528h159.744c12.288 0 22.528 10.24 22.528 22.528v241.664c0 12.288-10.24 22.528-22.528 22.528v0zM512 632.832c6.144 0 12.288-4.096 12.288-10.24s-4.096-10.24-12.288-10.24-12.288 4.096-12.288 10.24c0 6.144 6.144 10.24 12.288 10.24v0zM591.872 434.176c0-12.288-10.24-22.528-22.528-22.528h-114.688c-12.288 0-22.528 10.24-22.528 22.528v133.12c0 12.288 10.24 22.528 22.528 22.528h114.688c12.288 0 22.528-10.24 22.528-22.528v-133.12z"></path>
		</symbol>
		<symbol id="icon-pinterest" viewBox="0 0 1024 1024">
			<title>pinterest</title>
			<path class="path1" d="M417.792 714.752c0 2.048 4.096 4.096 6.144 2.048s32.768-40.96 43.008-77.824c2.048-10.24 16.384-65.536 16.384-65.536 8.192 16.384 32.768 28.672 59.392 28.672 77.824 0 131.072-69.632 131.072-161.792 0-69.632-61.44-135.168-153.6-135.168-114.688 0-174.080 79.872-174.080 147.456 0 40.96 16.384 75.776 49.152 90.112 6.144 2.048 10.24 0 12.288-6.144 2.048-4.096 4.096-14.336 4.096-18.432 2.048-6.144 0-8.192-4.096-12.288-10.24-10.24-16.384-26.624-16.384-47.104 0-59.392 45.056-112.64 118.784-112.64 65.536 0 100.352 38.912 100.352 90.112 0 67.584-30.72 124.928-77.824 124.928-24.576 0-45.056-20.48-38.912-45.056 8.192-30.72 22.528-61.44 22.528-83.968 0-18.432-10.24-34.816-32.768-34.816-26.624 0-47.104 26.624-47.104 61.44 0 22.528 8.192 36.864 8.192 36.864s-26.624 108.544-30.72 129.024c-4.096 38.912 4.096 83.968 4.096 90.112v0z"></path>
		</symbol>
		<symbol id="icon-twitter" viewBox="0 50 50 50">
			<title>twitter</title>
			<path d="M48.3,59.3L48.3,59.3L48.3,59.3z M33.8,54.4c-5.3,0-9.6,4.7-9.6,10.4c0,0.8,0,1.6,0.2,2.5c-8-0.4-15.1-4.5-19.8-10.8
	c-0.8,1.4-1.2,3.3-1.2,5.1c0,3.7,1.6,6.7,4.3,8.6c-1.6,0-3.1-0.6-4.3-1.2c0,0,0,0,0,0.2c0,4.9,3.3,9.2,7.8,10.2
	c-0.8,0.2-1.6,0.4-2.5,0.4c-0.6,0-1.2,0-1.8-0.2c1.2,4.1,4.7,7.2,9,7.2c-3.3,2.9-7.4,4.5-12.1,4.5c-0.8,0-1.6,0-2.2-0.2
	c4.3,2.9,9.4,4.7,14.7,4.7c17.8,0,27.4-15.7,27.4-29.4c0-0.4,0-0.8,0-1.4c1.8-1.4,3.5-3.3,4.9-5.3c-1.6,0.8-3.7,1.4-5.5,1.6
	c2-1.2,3.5-3.3,4.3-5.7c-1.8,1.2-3.9,2-6.1,2.5C39.1,55.6,36.7,54.4,33.8,54.4L33.8,54.4z"/>
		</symbol>
		<symbol id="icon-youtube" viewBox="0 0 1024 1024">
			<title>youtube</title>
			<path class="path1" d="M751.616 616.448c0 0-4.096 36.864-20.48 51.2-20.48 20.48-40.96 20.48-51.2 22.528-69.632 6.144-178.176 6.144-178.176 6.144s-133.12-2.048-174.080-6.144c-12.288-2.048-36.864-2.048-57.344-22.528-14.336-16.384-20.48-51.2-20.48-51.2s-6.144-43.008-6.144-83.968v-40.96c0-43.008 6.144-83.968 6.144-83.968s4.096-36.864 20.48-51.2c20.48-20.48 40.96-20.48 51.2-22.528 71.68-6.144 178.176-6.144 178.176-6.144v0c0 0 106.496 0 178.176 6.144 10.24 2.048 32.768 2.048 51.2 22.528 14.336 16.384 20.48 51.2 20.48 51.2s6.144 43.008 6.144 83.968v40.96c2.048 40.96-4.096 83.968-4.096 83.968v0zM448.512 432.128v147.456l139.264-73.728-139.264-73.728z"></path>
		</symbol>

		<symbol id="icon-instagram" viewBox="0 0 22 22">
			<path d="M11,2c2.9,0,3.3,0,4.4,0.1c1.1,0,1.7,0.2,2,0.4c0.5,0.2,0.9,0.4,1.3,0.8c0.4,0.4,0.6,0.8,0.8,1.3
				c0.2,0.4,0.3,1,0.4,2C20,7.7,20,8.1,20,11s0,3.3-0.1,4.4c0,1.1-0.2,1.7-0.4,2c-0.2,0.5-0.4,0.9-0.8,1.3c-0.4,0.4-0.8,0.6-1.3,0.8
				c-0.4,0.2-1,0.3-2,0.4C14.3,20,13.9,20,11,20S7.7,20,6.6,20c-1.1,0-1.7-0.2-2-0.4c-0.5-0.2-0.9-0.4-1.3-0.8
				c-0.4-0.4-0.6-0.8-0.8-1.3c-0.2-0.4-0.3-1-0.4-2C2,14.3,2,13.9,2,11S2,7.7,2,6.6c0-1.1,0.2-1.7,0.4-2C2.6,4,2.9,3.6,3.2,3.2
				C3.6,2.9,4,2.6,4.5,2.4c0.4-0.2,1-0.3,2-0.4C7.7,2,8.1,2,11,2 M11,0C8,0,7.6,0,6.5,0.1c-1.2,0.1-2,0.2-2.7,0.5
				C3.1,0.9,2.5,1.2,1.8,1.8c-0.6,0.6-1,1.2-1.3,1.9C0.3,4.5,0.1,5.3,0.1,6.5C0,7.6,0,8,0,11c0,3,0,3.4,0.1,4.5c0.1,1.2,0.2,2,0.5,2.7
				c0.3,0.7,0.7,1.3,1.3,1.9c0.6,0.6,1.2,1,1.9,1.3c0.7,0.3,1.5,0.5,2.7,0.5C7.6,22,8,22,11,22s3.4,0,4.5-0.1c1.2-0.1,2-0.2,2.7-0.5
				c0.7-0.3,1.3-0.7,1.9-1.3c0.6-0.6,1-1.2,1.3-1.9c0.3-0.7,0.5-1.5,0.5-2.7C22,14.4,22,14,22,11s0-3.4-0.1-4.5
				c-0.1-1.2-0.2-2-0.5-2.7c-0.3-0.7-0.7-1.3-1.3-1.9c-0.6-0.6-1.2-1-1.9-1.3c-0.7-0.3-1.5-0.5-2.7-0.5C14.4,0,14,0,11,0L11,0z"/>
			<path class="st0" d="M11,5.4c-3.1,0-5.6,2.5-5.6,5.6s2.5,5.6,5.6,5.6s5.6-2.5,5.6-5.6S14.1,5.4,11,5.4z M11,14.7
				c-2,0-3.7-1.6-3.7-3.7C7.3,9,9,7.3,11,7.3c2,0,3.7,1.6,3.7,3.7C14.7,13,13,14.7,11,14.7z"/>
			<circle class="st0" cx="16.9" cy="5.1" r="1.3"/>
		</symbol>

		<symbol id="icon-menu" viewBox="0 0 1024 1024">
			<title>menu</title>
			<path class="path1" d="M690.176 675.84h-356.352c-14.336 0-26.624-14.336-26.624-30.72s12.288-30.72 26.624-30.72h356.352c14.336 0 26.624 14.336 26.624 30.72s-12.288 30.72-26.624 30.72z"></path>
			<path class="path2" d="M690.176 542.72h-356.352c-14.336 0-26.624-14.336-26.624-30.72s12.288-30.72 26.624-30.72h356.352c14.336 0 26.624 14.336 26.624 30.72s-12.288 30.72-26.624 30.72z"></path>
			<path class="path3" d="M690.176 409.6h-356.352c-14.336 0-26.624-14.336-26.624-30.72s12.288-30.72 26.624-30.72h356.352c14.336 0 26.624 14.336 26.624 30.72s-12.288 30.72-26.624 30.72z"></path>
		</symbol>
		<symbol id="arrow-left" viewBox="0 1080 50 50">
			<title>arrow-left</title>
			<path d="M22.4,1109.4l-3.3-3.8c-0.1-0.2-0.2-0.4-0.2-0.6l0,0l0,0c0-0.2,0.1-0.4,0.2-0.6l3.3-3.8c0.2-0.3,0.6-0.4,0.8-0.2 c0.4,0.3,0.5,0.8,0.1,1.2l-2.1,2.5v0.1h9.1c0.3,0,0.7,0.2,0.7,0.6c0.1,0.5-0.2,0.9-0.7,0.9h-9.1c0,0,0,0,0,0.1l2.1,2.5 c0.3,0.4,0.3,0.9-0.1,1.2C23,1109.7,22.7,1109.6,22.4,1109.4z"/>
		</symbol>
		<symbol id="arrow-right" viewBox="0 1080 50 50">
			<title>arrow-right</title>
			<path d="M27.8,1100.3l3.5,4.1c0.1,0.2,0.2,0.4,0.2,0.6v0c0,0,0,0,0,0c0,0.2-0.1,0.4-0.2,0.6l-3.5,4.1c-0.2,0.3-0.6,0.4-0.9,0.2 c-0.4-0.3-0.5-0.9-0.1-1.3l2.3-2.7c0,0,0-0.1,0-0.1h-9.8c-0.3,0-0.7-0.2-0.7-0.6c-0.1-0.5,0.2-1,0.7-1H29c0,0,0,0,0-0.1l-2.3-2.7 c-0.3-0.4-0.3-1,0.1-1.3C27.2,1099.9,27.5,1100,27.8,1100.3z"/>
		</symbol>
		<symbol id="icon-arrow-down" viewBox="0 25 50 50">
			<title>arrow-down</title>
			<path d="M29.8 52.7l-4.2 3.5c-0.2 0.2-0.5 0.2-0.5 0.2l0 0 0 0c-0.2 0-0.5 0-0.5-0.2l-4.2-3.5c-0.2-0.2-0.5-0.7-0.2-0.9 0.2-0.5 1-0.5 1.2-0.2l2.7 2.4 0 0v-9.7c0-0.2 0.2-0.7 0.7-0.7s1 0.2 1 0.7v9.7l0 0 2.7-2.4c0.5-0.2 1-0.2 1.2 0.2C30.1 52 30.1 52.5 29.8 52.7z"/>
		</symbol>
		<symbol id="plus" viewBox="0 0 14 14">
			<title>plus</title>
			<path d="M13 8C13 8 8 8 8 8 8 8 8 13 8 13 8 13.55 7.55 14 7 14 6.45 14 6 13.55 6 13 6 13 6 8 6 8 6 8 1 8 1 8 0.45 8 0 7.55 0 7 0 6.45 0.45 6 1 6 1 6 6 6 6 6 6 6 6 1 6 1 6 0.45 6.45 0 7 0 7.55 0 8 0.45 8 1 8 1 8 6 8 6 8 6 13 6 13 6 13.55 6 14 6.45 14 7 14 7.55 13.55 8 13 8Z"/>
		</symbol>
		<symbol id="icon-gplus" viewBox="0 50 50 50">
			<path d="M42.4,67.8v6.8h-5v-6.8H30V63h7.4v-6.8h5V63h7.4v4.8H42.4z M21.1,56.8c0.3,0.2,0.8,0.5,1.2,1c0.5,0.5,0.8,1,1.3,1.5
	c0.3,0.5,0.8,1.3,1,2c0.3,0.8,0.3,1.7,0.3,2.8c0,2-0.5,3.5-1.3,4.6c-0.5,0.5-0.8,1-1.3,1.5c-0.5,0.5-1.2,1-1.7,1.5
	c-0.3,0.3-0.7,0.7-1,1.2c-0.3,0.5-0.5,1-0.5,1.5c0,0.5,0.2,1,0.5,1.3c0.3,0.3,0.7,0.7,0.8,1l2,1.5c1.2,1,2.3,2,3.1,3
	c0.8,1.2,1.3,2.6,1.3,4.5c0,2.6-1.2,5-3.6,6.9c-2.5,2.1-6.3,3.1-11.1,3.1c-4,0-7.1-0.8-9.1-2.3c-2-1.5-3-3.1-3-5.3
	c0-1,0.3-2.1,1-3.3s1.8-2.3,3.5-3.1c1.8-1,3.8-1.7,5.9-2c2-0.3,3.8-0.5,5.1-0.5c-0.5-0.5-0.8-1-1.2-1.7c-0.3-0.5-0.5-1.2-0.5-2
	c0-0.5,0-0.8,0.2-1.2c0.2-0.3,0.2-0.7,0.3-1c-0.7,0-1.3,0.2-1.8,0.2c-3.1,0-5.4-1-6.9-2.6c-1.7-1.7-2.5-3.5-2.5-5.8
	c0-2.6,1.2-5.1,3.6-7.3c1.7-1.3,3.3-2.3,5.1-2.6c1.8-0.3,3.3-0.7,5-0.7h11.6l-3.6,2.5L21.1,56.8L21.1,56.8z M13.7,80.5
	c-1.2,0.2-2.5,0.3-3.6,0.8c-0.3,0.2-0.7,0.3-1.2,0.5c-0.5,0.2-1.2,0.5-1.7,1s-1,1-1.3,1.7C5.4,85.2,5.3,86,5.3,87
	c0,1.8,1,3.5,2.8,4.6s4.1,1.8,7.1,1.8c2.6,0,4.8-0.7,6.3-1.7c1.3-1,2.1-2.5,2.1-4.1c0-1.3-0.5-2.5-1.5-3.5c-1-1-2.6-2.1-4.8-3.5
	c-0.3,0-0.8,0-1.3,0C15.7,80.4,14.8,80.4,13.7,80.5L13.7,80.5z M18.5,60.1c-0.5-1-1.3-1.8-2.1-2.5c-0.8-0.7-2-1-3.1-1
	c-1.5,0-2.8,0.7-4,1.8c-0.8,1.2-1.3,2.5-1.3,4c0,2,0.7,4,1.8,6.1c0.7,1,1.3,1.8,2.3,2.5s2,1,3.1,1c1.5,0,2.8-0.5,3.8-1.5
	c0.5-0.7,0.8-1.3,1-2.1c0-0.7,0.2-1.3,0.2-1.8C20.3,64.4,19.6,62.2,18.5,60.1z"/>
		</symbol>
	</defs>
</svg>
